<?xml version="1.0" encoding="UTF-8" standalone="no"?>
<svg
   xmlns:dc="http://purl.org/dc/elements/1.1/"
   xmlns:cc="http://creativecommons.org/ns#"
   xmlns:rdf="http://www.w3.org/1999/02/22-rdf-syntax-ns#"
   xmlns:svg="http://www.w3.org/2000/svg"
   xmlns="http://www.w3.org/2000/svg"
   id="svg8"
   version="1.1"
   viewBox="0 0 89.454048 90.441963"
   height="90.441963mm"
   width="89.454048mm">
  <defs
     id="defs2" />
  <metadata
     id="metadata5">
    <rdf:RDF>
      <cc:Work
         rdf:about="">
        <dc:format>image/svg+xml</dc:format>
        <dc:type
           rdf:resource="http://purl.org/dc/dcmitype/StillImage" />
        <dc:title></dc:title>
      </cc:Work>
    </rdf:RDF>
  </metadata>
  <g
     transform="translate(-21.52437,-18.921996)"
     id="layer1">
    <path
       id="path880"
       d="M 21.52437,64.142985 V 18.921996 h 44.633695 c 38.891365,0 44.633705,0.226683 44.633705,1.761857 0,1.533911 -5.54658,1.761856 -42.871849,1.761856 H 25.048083 v 43.459133 c 0,37.847288 -0.227515,43.459118 -1.761856,43.459118 -1.53559,0 -1.761857,-5.80759 -1.761857,-45.220975 z m 42.603079,42.237695 c -8.020401,-2.16012 -14.310729,-6.2211 -19.561047,-12.628438 -2.336888,-2.85187 -4.248891,-5.52719 -4.248891,-5.94516 0,-0.41799 7.135519,-0.75996 15.856709,-0.75996 h 15.856709 v 10.57114 c 0,5.814118 -0.396487,10.536338 -0.880928,10.493838 -0.484442,-0.043 -3.644657,-0.82169 -7.022552,-1.73142 z m 10.252617,-8.740048 v -10.59351 l 8.515636,-0.17605 c 4.683611,-0.0971 6.929978,-0.36513 4.991936,-0.59639 -1.938042,-0.23126 -5.77008,-0.71293 -8.515649,-1.07057 l -4.991923,-0.650088 v -6.388173 -6.388173 h 18.299183 18.299171 l -0.77022,3.817361 c -1.18392,5.867523 -4.31616,13.801203 -5.44888,13.801203 -0.55825,0 -1.01495,0.74387 -1.01495,1.65301 0,0.90909 -2.65851,4.04324 -5.907806,6.96465 -5.409537,4.863638 -10.90363,7.445838 -20.226404,9.506338 l -3.230066,0.7139 z M 53.598108,82.480985 c -8.523015,-1.075981 -15.837314,-2.297336 -16.254,-2.714022 -0.416742,-0.416742 -0.757599,-4.481719 -0.757599,-9.033413 0,-14.664862 7.451641,-26.553259 20.745764,-33.097918 14.797972,-7.285028 32.364556,-3.808607 43.534937,8.615547 2.87446,3.197076 5.22628,6.284265 5.22628,6.860406 0,0.578777 -11.694669,1.099843 -26.134207,1.164352 l -26.134214,0.116532 27.212817,3.113214 c 14.967055,1.712261 27.444354,3.377479 27.727354,3.700482 0.283,0.32296 0.84153,2.305091 1.2412,4.404641 l 0.72667,3.81736 H 91.382051 72.030998 v 7.634708 c 0,5.394208 -0.430892,7.596487 -1.468223,7.504426 -0.80754,-0.07214 -8.441582,-1.010639 -16.964597,-2.086704 z"
       style="fill:#00589c;stroke-width:1.17457104;fill-opacity:1" />
  </g>
</svg>
